<svg version="1.1" x="0" y="0" width="55px" height="59.9px" viewBox="0 0 55 59.9" enable-background="new 0 0 55 59.9"><path d="M52.6,21v0.2L32.1,1.9C29.2-0.7,24.8-0.7,21.9,2L2.1,21.4c-0.1,0.1-0.3,0.2-0.4,0.3S1.5,22,1.4,22.1 l-0.1,0.1c-0.8,1.1-1.2,2.4-1.3,3.7v27.9c0,3.4,2.6,6.1,5.9,6.1H49c3.3-0.1,6-2.8,6-6.1V26C55.1,24,54.2,22.2,52.6,21z M51.7,53.9 c0,1.5-1.2,2.7-2.7,2.7H6c-1.5,0-2.7-1.2-2.7-2.7V26c0-0.5,0.2-1.1,0.5-1.5L24.1,4.6c1.6-1.4,4.1-1.4,5.7,0l21.4,20.2l0.1-0.1 c0.2,0.4,0.4,0.9,0.4,1.4C51.7,26.1,51.7,53.9,51.7,53.9z"></path><path d="M47.2,27.8c-0.6-0.7-1.7-0.7-2.4-0.1l-14.4,14c-1.6,1.4-4,1.4-5.6,0.1L10,27.6c-0.6-0.6-1.7-0.6-2.3,0 l-0.1,0.1C7,28.4,7,29.5,7.7,30.1l14.7,14.3c1.4,1.2,3.2,1.9,5,1.9c1.9,0,3.7-0.7,5.1-2L47,30.2C47.7,29.7,47.9,28.6,47.2,27.8 C47.3,27.9,47.3,27.8,47.2,27.8z"></path></svg>